<svg width="81" height="18" viewBox="0 0 81 18" fill="none" xmlns="http://www.w3.org/2000/svg">
<g clip-path="url(#clip0_10_998)">
<path fill-rule="evenodd" clip-rule="evenodd" d="M78.2153 2.88341C76.5033 1.1595 74.5167 0.332031 72.12 0.332031C69.7227 0.332031 67.6673 1.1595 66.0238 2.88341C64.3115 4.53836 63.4896 6.60705 63.4896 8.95157C63.4896 13.7785 67.3252 17.5711 72.12 17.5711C76.914 17.5711 80.75 13.7785 80.75 8.95157C80.75 6.60705 79.8593 4.53836 78.2153 2.88341ZM11.1609 2.6078C9.5856 1.22868 7.32534 0.608073 4.31164 0.608073H0.75V17.2955H4.24315C7.32534 17.2955 9.65413 16.6059 11.2295 15.1578C13.0103 13.5029 13.9692 11.5032 13.9692 8.95176C13.9692 6.33144 13.0103 4.1938 11.1609 2.6078ZM16.1615 0.608073H18.9012V17.2955H16.1615V0.608073ZM4.31202 14.6752C6.64079 14.6752 8.35313 14.1236 9.38053 13.1582C10.5449 12.0549 11.1613 10.6758 11.1613 8.9519C11.1613 7.15903 10.5449 5.71094 9.312 4.60764C8.2846 3.71121 6.64079 3.22852 4.31202 3.22852H3.55859V14.6752H4.31202ZM72.052 14.8818C73.696 14.8818 75.0653 14.3302 76.23 13.158C77.394 12.0546 77.942 10.6066 77.942 8.95163C77.942 7.29663 77.394 5.84858 76.23 4.74528C75.0653 3.57302 73.696 2.95242 71.9833 2.88346C70.408 2.88346 68.97 3.43511 67.874 4.60737C66.7779 5.77962 66.1615 7.2277 66.1615 8.88263C66.1615 12.1926 68.764 14.8818 72.052 14.8818ZM53.3529 17.2955H62.3939V14.6752H56.0926V9.50343H61.846V6.88309H56.0241V3.22841H62.3939V0.608073H53.3529V17.2955ZM44.0369 8.3999H51.4342L51.5027 8.88263C51.5712 10.1238 51.4342 11.1582 51.2287 11.9856C50.9547 13.02 50.4753 13.9164 49.7903 14.7439C49.0369 15.6403 48.1465 16.3299 47.0506 16.8126C45.9547 17.2952 44.7903 17.5711 43.6259 17.5711C38.9684 17.5711 35.1328 13.7096 35.1328 9.0205C35.1328 4.19358 38.9684 0.332031 43.7629 0.332031C46.5712 0.332031 48.9684 1.50428 50.7493 3.91775L48.6945 5.71062C47.3246 3.91775 45.7493 2.95236 43.7629 2.95236C42.1191 2.95236 40.7493 3.50402 39.6533 4.67627C38.4205 5.91748 37.8725 7.36556 37.8725 9.0205C37.8725 10.6065 38.489 11.9856 39.5849 13.089C40.8177 14.3302 42.1191 14.9508 43.6259 14.9508C44.8589 14.9508 46.0232 14.537 47.0506 13.7096C47.941 12.951 48.489 12.0546 48.6259 11.0202H44.0369V8.3999ZM27.1887 0.539063L19.9284 17.2954H22.9421L24.5174 13.5718C24.5174 13.5028 24.5859 13.3649 24.5859 13.3649C24.6283 13.3649 24.6706 13.3912 24.7291 13.4276C24.7653 13.4502 24.8076 13.4765 24.8599 13.5028C25.7503 13.8476 26.8462 14.0545 27.8736 14.0545C28.901 14.0545 29.9284 13.8476 30.5448 13.6408C30.8873 13.5718 30.9558 13.5028 31.0243 13.4339C31.0243 13.4339 31.0927 13.5718 31.0927 13.6408L32.5996 17.2954H35.6818L28.5585 0.539063H27.1887ZM27.8723 11.4342C28.5572 11.4342 29.2421 11.2963 29.7901 11.1584L30.0641 11.0894C30.0641 10.9515 29.9955 10.8136 29.9271 10.7446L27.8723 5.57292L25.7489 10.6757C25.7489 10.7446 25.6805 10.8826 25.612 11.0204C25.6805 11.0204 25.8175 11.0894 25.9545 11.1584C26.5709 11.3652 27.1873 11.4342 27.8723 11.4342Z" fill="white"/>
</g>
<defs>
<clipPath id="clip0_10_998">
<rect width="80" height="17.3333" fill="white" transform="translate(0.75 0.332031)"/>
</clipPath>
</defs>
</svg>
