<svg width="21" height="21" viewBox="0 0 21 21" fill="none" xmlns="http://www.w3.org/2000/svg">
<g clip-path="url(#clip0_7140_2480)">
<path d="M10.6649 11.7752C12.3525 11.7752 13.7205 10.4072 13.7205 8.71962C13.7205 7.03208 12.3525 5.66406 10.6649 5.66406C8.97739 5.66406 7.60938 7.03208 7.60938 8.71962C7.60938 10.4072 8.97739 11.7752 10.6649 11.7752Z" fill="#200C05"/>
<path d="M15.8219 17.0323C15.2974 14.6301 13.1285 12.8867 10.6663 12.8867C8.20409 12.8867 6.0352 14.6301 5.51075 17.0323C5.30075 17.9923 5.89742 18.9756 6.87075 19.2689C8.10186 19.6412 9.37964 19.8312 10.6663 19.8312C11.953 19.8312 13.2308 19.6423 14.4619 19.2689C15.4352 18.9745 16.0319 17.9923 15.8219 17.0323Z" fill="#200C05"/>
<path d="M5.38867 7.05469C6.76938 7.05469 7.88867 5.9354 7.88867 4.55469C7.88867 3.17398 6.76938 2.05469 5.38867 2.05469C4.00796 2.05469 2.88867 3.17398 2.88867 4.55469C2.88867 5.9354 4.00796 7.05469 5.38867 7.05469Z" fill="#200C05"/>
<path d="M7.35231 12.0802C6.48342 11.2235 5.94342 10.0357 5.94342 8.72238C5.94342 8.53793 5.97675 8.36349 5.99787 8.1846C5.8512 8.17682 5.70676 8.16793 5.54676 8.16349L5.38787 8.16016C3.18342 8.16016 1.26342 9.65016 0.721199 11.7857C0.47231 12.7646 1.08898 13.7968 2.09453 14.0879C2.77564 14.2857 3.68787 14.5024 4.75453 14.5368C5.39342 13.5046 6.29453 12.659 7.35231 12.0802Z" fill="#200C05"/>
<path d="M15.9434 7.05469C17.3241 7.05469 18.4434 5.9354 18.4434 4.55469C18.4434 3.17398 17.3241 2.05469 15.9434 2.05469C14.5626 2.05469 13.4434 3.17398 13.4434 4.55469C13.4434 5.9354 14.5626 7.05469 15.9434 7.05469Z" fill="#200C05"/>
<path d="M13.9785 12.0802C14.8474 11.2235 15.3874 10.0357 15.3874 8.72238C15.3874 8.53793 15.3541 8.36349 15.333 8.1846C15.4796 8.17682 15.6241 8.16793 15.7841 8.16349L15.943 8.16016C18.1474 8.16016 20.0674 9.65016 20.6096 11.7857C20.8585 12.7646 20.2418 13.7968 19.2363 14.0879C18.5552 14.2857 17.643 14.5024 16.5763 14.5368C15.9374 13.5046 15.0363 12.659 13.9785 12.0802Z" fill="#200C05"/>
</g>
<defs>
<clipPath id="clip0_7140_2480">
<rect width="20" height="20" fill="white" transform="translate(0.666016 0.945312)"/>
</clipPath>
</defs>
</svg>
