<svg width="21" height="21" viewBox="0 0 21 21" fill="none" xmlns="http://www.w3.org/2000/svg">
<path d="M3.38997 19.8354C2.92997 19.8354 2.55664 19.4621 2.55664 19.0021V5.84873C2.55664 5.0665 3.0222 4.36317 3.74331 4.05873L8.74331 1.94317C9.34553 1.68873 10.03 1.75206 10.5744 2.11317C11.12 2.47428 11.4444 3.08095 11.4444 3.73428V5.66873C11.4444 6.12873 11.0711 6.50206 10.6111 6.50206C10.1511 6.50206 9.77775 6.12873 9.77775 5.66873V3.73428C9.77775 3.60428 9.69997 3.53317 9.65331 3.50206C9.60664 3.47095 9.51109 3.4265 9.39109 3.47873L4.39109 5.59317C4.28886 5.6365 4.2222 5.7365 4.2222 5.84873V19.0021C4.2222 19.4621 3.84997 19.8354 3.38997 19.8354Z" fill="#200C05"/>
<path d="M18.3898 18.1688H18.112V9.55773C18.112 8.4855 17.2398 7.61328 16.1675 7.61328H10.0564C8.9842 7.61328 8.11198 8.4855 8.11198 9.55773V18.1688H2.27865C1.81865 18.1688 1.44531 18.5422 1.44531 19.0022C1.44531 19.4622 1.81865 19.8355 2.27865 19.8355H18.3898C18.8498 19.8355 19.2231 19.4622 19.2231 19.0022C19.2231 18.5422 18.8498 18.1688 18.3898 18.1688ZM12.5564 15.6688C12.5564 16.1288 12.1831 16.5022 11.7231 16.5022C11.2631 16.5022 10.8898 16.1288 10.8898 15.6688V15.1133C10.8898 14.6533 11.2631 14.2799 11.7231 14.2799C12.1831 14.2799 12.5564 14.6533 12.5564 15.1133V15.6688ZM12.5564 12.3355C12.5564 12.7955 12.1831 13.1688 11.7231 13.1688C11.2631 13.1688 10.8898 12.7955 10.8898 12.3355V11.7799C10.8898 11.3199 11.2631 10.9466 11.7231 10.9466C12.1831 10.9466 12.5564 11.3199 12.5564 11.7799V12.3355ZM15.3342 15.6688C15.3342 16.1288 14.9609 16.5022 14.5009 16.5022C14.0409 16.5022 13.6675 16.1288 13.6675 15.6688V15.1133C13.6675 14.6533 14.0409 14.2799 14.5009 14.2799C14.9609 14.2799 15.3342 14.6533 15.3342 15.1133V15.6688ZM15.3342 12.3355C15.3342 12.7955 14.9609 13.1688 14.5009 13.1688C14.0409 13.1688 13.6675 12.7955 13.6675 12.3355V11.7799C13.6675 11.3199 14.0409 10.9466 14.5009 10.9466C14.9609 10.9466 15.3342 11.3199 15.3342 11.7799V12.3355Z" fill="#200C05"/>
</svg>
