<svg width="20" height="21" viewBox="0 0 20 21" fill="none" xmlns="http://www.w3.org/2000/svg">
<path d="M9.99826 9.83246C12.146 9.83246 13.8872 8.09135 13.8872 5.94358C13.8872 3.7958 12.146 2.05469 9.99826 2.05469C7.85049 2.05469 6.10938 3.7958 6.10938 5.94358C6.10938 8.09135 7.85049 9.83246 9.99826 9.83246Z" fill="#200C05"/>
<path d="M9.99903 10.9453C6.92792 10.9453 4.13903 12.7631 2.89347 15.5753C2.60791 16.2198 2.61125 16.9586 2.90236 17.6031C3.20014 18.2598 3.76569 18.762 4.4568 18.9798C6.25458 19.5464 8.11903 19.8342 9.99791 19.8342C11.8768 19.8342 13.7412 19.5464 15.539 18.9798C16.2301 18.762 16.7968 18.2598 17.0935 17.6031C17.3846 16.9586 17.3879 16.2198 17.1024 15.5753C15.8568 12.7631 13.0679 10.9453 9.9968 10.9453H9.99903Z" fill="#200C05"/>
</svg>
